<svg width="195" height="144" viewBox="0 0 195 144" fill="none" xmlns="http://www.w3.org/2000/svg">
<path d="M27.1765 22.6402C30.6166 22.6402 33.7413 23.2422 36.5507 24.4462C39.4174 25.5929 41.8541 27.3703 43.8608 29.7783C48.2182 34.8811 50.3969 42.1912 50.3969 51.7087C50.3969 61.2262 48.2182 68.5364 43.8608 73.6391C39.8474 78.3979 34.3146 80.7773 27.2625 80.7773C20.153 80.7773 14.5629 78.3979 10.4922 73.6391C6.19212 68.651 4.04208 61.3409 4.04208 51.7087C4.04208 42.0765 6.19212 34.7664 10.4922 29.7783C14.5629 25.0195 20.1244 22.6402 27.1765 22.6402ZM39.9047 51.7087C39.9047 45.2873 38.7867 40.3852 36.5507 37.0024C34.372 33.5624 31.2473 31.8423 27.1765 31.8423C23.1631 31.8423 20.0384 33.5624 17.8023 37.0024C15.6236 40.3852 14.5343 45.2873 14.5343 51.7087C14.5343 58.1302 15.6236 63.0323 17.8023 66.415C20.0384 69.7404 23.1631 71.4031 27.1765 71.4031C31.2473 71.4031 34.372 69.7404 36.5507 66.415C38.7867 63.0323 39.9047 58.1302 39.9047 51.7087ZM99.8317 23.1562V58.5028H109.55V67.189H99.8317V79.5732H89.7696V67.189H61.475V59.5349L90.0276 23.1562H99.8317ZM73.5152 59.5349H90.2856V38.2065L73.5152 59.5349Z" fill="#6FE187"/>
<path d="M17.2509 133.898C20.1044 133.898 21.5312 131.551 21.5312 126.858C21.5312 126.351 21.4937 125.797 21.4186 125.197C21.1745 126.661 20.5644 127.769 19.5882 128.519C18.7246 129.177 17.6263 129.505 16.2934 129.505C14.5851 129.505 13.1865 128.97 12.0976 127.9C11.0275 126.811 10.4925 125.422 10.4925 123.732C10.4925 122.005 11.1026 120.607 12.3229 119.536C13.5431 118.466 15.1295 117.931 17.0819 117.931C19.2972 117.931 21.1463 118.776 22.6294 120.466C24.1313 122.193 24.8822 124.418 24.8822 127.14C24.8822 131.852 23.4742 134.902 20.6582 136.292C19.7196 136.742 18.6964 136.967 17.5888 136.967C16.4999 136.967 15.5425 136.827 14.7165 136.545C13.9092 136.263 13.2052 135.869 12.6045 135.362C11.3279 134.292 10.6896 132.894 10.6896 131.167H14.1533C14.1908 132.011 14.4912 132.678 15.0544 133.166C15.6364 133.654 16.3685 133.898 17.2509 133.898ZM17.1101 120.973C16.209 120.973 15.4486 121.235 14.8291 121.761C14.2284 122.268 13.928 122.981 13.928 123.901C13.928 124.802 14.2284 125.506 14.8291 126.013C15.4486 126.52 16.209 126.774 17.1101 126.774C17.9924 126.774 18.7434 126.511 19.3629 125.985C19.9824 125.422 20.2922 124.718 20.2922 123.873C20.2922 123.01 19.9824 122.306 19.3629 121.761C18.7621 121.235 18.0112 120.973 17.1101 120.973ZM31.6224 136.348C30.9465 136.348 30.3927 136.141 29.9609 135.728C29.5292 135.315 29.3133 134.79 29.3133 134.151C29.3133 133.513 29.5292 132.978 29.9609 132.546C30.3927 132.115 30.9465 131.899 31.6224 131.899C32.2982 131.899 32.8614 132.115 33.312 132.546C33.7625 132.978 33.9878 133.513 33.9878 134.151C33.9878 134.79 33.7625 135.315 33.312 135.728C32.8614 136.141 32.2982 136.348 31.6224 136.348ZM31.6224 127.984C30.9465 127.984 30.3927 127.778 29.9609 127.365C29.5292 126.952 29.3133 126.426 29.3133 125.788C29.3133 125.15 29.5292 124.615 29.9609 124.183C30.3927 123.751 30.9465 123.535 31.6224 123.535C32.2982 123.535 32.8614 123.751 33.312 124.183C33.7625 124.615 33.9878 125.15 33.9878 125.788C33.9878 126.426 33.7625 126.952 33.312 127.365C32.8614 127.778 32.2982 127.984 31.6224 127.984ZM46.0553 117.931C47.1817 117.931 48.2048 118.128 49.1247 118.523C50.0634 118.898 50.8612 119.48 51.5183 120.269C52.9451 121.939 53.6585 124.333 53.6585 127.449C53.6585 130.566 52.9451 132.959 51.5183 134.63C50.2042 136.188 48.3925 136.967 46.0834 136.967C43.7555 136.967 41.9251 136.188 40.5922 134.63C39.1842 132.997 38.4802 130.603 38.4802 127.449C38.4802 124.295 39.1842 121.902 40.5922 120.269C41.9251 118.71 43.7461 117.931 46.0553 117.931ZM50.2229 127.449C50.2229 125.347 49.8569 123.742 49.1247 122.634C48.4113 121.508 47.3882 120.944 46.0553 120.944C44.7411 120.944 43.718 121.508 42.9858 122.634C42.2724 123.742 41.9157 125.347 41.9157 127.449C41.9157 129.552 42.2724 131.157 42.9858 132.265C43.718 133.354 44.7411 133.898 46.0553 133.898C47.3882 133.898 48.4113 133.354 49.1247 132.265C49.8569 131.157 50.2229 129.552 50.2229 127.449ZM65.5649 117.931C66.6913 117.931 67.7144 118.128 68.6343 118.523C69.573 118.898 70.3708 119.48 71.0279 120.269C72.4547 121.939 73.1681 124.333 73.1681 127.449C73.1681 130.566 72.4547 132.959 71.0279 134.63C69.7138 136.188 67.9021 136.967 65.593 136.967C63.2651 136.967 61.4347 136.188 60.1018 134.63C58.6938 132.997 57.9898 130.603 57.9898 127.449C57.9898 124.295 58.6938 121.902 60.1018 120.269C61.4347 118.71 63.2557 117.931 65.5649 117.931ZM69.7325 127.449C69.7325 125.347 69.3665 123.742 68.6343 122.634C67.9209 121.508 66.8978 120.944 65.5649 120.944C64.2507 120.944 63.2276 121.508 62.4954 122.634C61.782 123.742 61.4253 125.347 61.4253 127.449C61.4253 129.552 61.782 131.157 62.4954 132.265C63.2276 133.354 64.2507 133.898 65.5649 133.898C66.8978 133.898 67.9209 133.354 68.6343 132.265C69.3665 131.157 69.7325 129.552 69.7325 127.449ZM93.971 118.297C96.0361 118.297 97.6412 118.804 98.7864 119.818C99.9503 120.813 100.532 122.249 100.532 124.127C100.532 125.985 99.9503 127.421 98.7864 128.435C97.6412 129.43 96.0361 129.927 93.971 129.927H90.8734V136.573H87.5224V118.297H93.971ZM93.971 127.027C95.0036 127.027 95.7827 126.755 96.3083 126.21C96.834 125.666 97.0968 124.971 97.0968 124.127C97.0968 123.263 96.834 122.559 96.3083 122.015C95.7827 121.451 95.0036 121.17 93.971 121.17H90.8734V127.027H93.971ZM110.418 118.297L115.431 129.167L120.443 118.297H125.033V136.573H121.682V122.69L116.501 134.574H114.332L108.982 122.296V136.573H105.659V118.297H110.418ZM140.773 118.297H144.096V136.573H140.773V118.297ZM160.618 123.338C160.317 121.742 159.191 120.944 157.239 120.944C156.281 120.944 155.53 121.142 154.986 121.536C154.46 121.911 154.197 122.371 154.197 122.916C154.197 123.46 154.366 123.892 154.704 124.211C155.061 124.511 155.605 124.793 156.338 125.056L160.308 126.605C161.66 127.13 162.702 127.797 163.434 128.604C164.166 129.392 164.532 130.387 164.532 131.589C164.532 133.241 163.913 134.555 162.674 135.531C161.434 136.489 159.67 136.967 157.379 136.967C155.352 136.967 153.709 136.47 152.451 135.475C151.043 134.386 150.302 132.847 150.227 130.857H153.522C153.522 132.359 154.301 133.307 155.859 133.701C156.328 133.832 156.948 133.898 157.717 133.898C158.487 133.898 159.2 133.71 159.858 133.335C160.515 132.941 160.843 132.424 160.843 131.786C160.843 131.129 160.665 130.631 160.308 130.294C159.951 129.937 159.369 129.608 158.562 129.308L154.93 127.872C153.522 127.327 152.442 126.689 151.691 125.957C150.94 125.225 150.565 124.211 150.565 122.916C150.565 121.395 151.156 120.194 152.339 119.311C153.54 118.391 155.164 117.931 157.21 117.931C159.276 117.931 160.862 118.41 161.97 119.367C163.096 120.306 163.744 121.63 163.913 123.338H160.618ZM168.212 118.297H182.856V121.17H177.196V136.573H173.873V121.17H168.212V118.297Z" fill="#6FE187"/>
<path d="M128.61 23.6032H122.4V44.5732H128.61C135.6 44.5732 139.71 40.6432 139.71 34.1332C139.71 27.5632 135.6 23.6032 128.61 23.6032ZM124.5 42.8332V25.3432H128.61C134.55 25.3432 137.58 28.7032 137.58 34.1332C137.58 39.5332 134.55 42.8332 128.61 42.8332H124.5ZM156.332 23.5732H145.382V44.5732H156.332V42.8332H147.482V34.8832H155.432V33.1432H147.482V25.3132H156.332V23.5732ZM161.31 34.0732C161.31 40.3732 165.75 44.7532 171.57 44.7532C176.25 44.7532 179.73 42.4132 181.23 38.4532H178.77C177.6 41.1832 175.14 42.9232 171.57 42.9232C166.98 42.9232 163.47 39.5332 163.47 34.0732C163.47 28.5832 166.98 25.1932 171.57 25.1932C175.14 25.1932 177.6 26.9332 178.77 29.7232H181.23C179.73 25.7032 176.25 23.3632 171.57 23.3632C165.75 23.3632 161.31 27.7732 161.31 34.0732Z" fill="#040F0F"/>
<path d="M121.53 83.4232H135.84V81.6532H124.74C128.97 78.5332 135.18 73.4632 135.18 67.9732C135.18 63.8332 132.42 61.7032 128.67 61.7032C124.71 61.7032 121.95 64.1932 121.71 68.7232H123.75C123.93 65.7232 125.49 63.5032 128.67 63.5032C132 63.5032 133.08 65.5732 133.08 68.0632C133.08 72.6532 127.71 77.3032 121.53 81.9232V83.4232ZM140.918 72.6232C140.918 78.8932 142.298 83.6332 148.208 83.6332C154.088 83.6332 155.498 78.8932 155.498 72.6232C155.498 66.4732 154.088 61.7632 148.208 61.7632C142.298 61.7632 140.918 66.4732 140.918 72.6232ZM153.428 72.6232C153.428 77.6632 152.768 81.7132 148.208 81.7132C143.648 81.7132 142.988 77.6632 142.988 72.6232C142.988 67.7632 143.648 63.6532 148.208 63.6532C152.768 63.6532 153.428 67.7632 153.428 72.6232ZM160.784 83.4232H175.094V81.6532H163.994C168.224 78.5332 174.434 73.4632 174.434 67.9732C174.434 63.8332 171.674 61.7032 167.924 61.7032C163.964 61.7032 161.204 64.1932 160.964 68.7232H163.004C163.184 65.7232 164.744 63.5032 167.924 63.5032C171.254 63.5032 172.334 65.5732 172.334 68.0632C172.334 72.6532 166.964 77.3032 160.784 81.9232V83.4232ZM182.122 83.5732H184.252V62.0632H179.152V63.9532H182.122V83.5732Z" fill="#040F0F"/>
<line x1="190.5" y1="101.073" x2="10.5" y2="101.073" stroke="#2D3A3A" stroke-width="3" stroke-linecap="round"/>
</svg>
